<mxfile host="app.diagrams.net" modified="2023-10-06T10:42:51.263Z" agent="Mozilla/5.0 (X11; Ubuntu; Linux x86_64; rv:109.0) Gecko/20100101 Firefox/118.0" version="22.0.3" etag="X8ssgsEH5dTJ8E85vRgm" type="github">
  <diagram name="Page-1" id="P6wWWgWflToZ5ggVqPpL">
    <mxGraphModel>
      <root>
        <mxCell id="0" />
        <mxCell id="1" parent="0" />
      </root>
    </mxGraphModel>
  </diagram>
</mxfile>
